<?xml version="1.0" encoding="utf-8"?>
<!-- Generator: Adobe Illustrator 26.0.1, SVG Export Plug-In . SVG Version: 6.00 Build 0)  -->
<svg version="1.1" id="Layer_1" xmlns="http://www.w3.org/2000/svg" xmlns:xlink="http://www.w3.org/1999/xlink" x="0px" y="0px"
	 viewBox="0 0 500 500" style="enable-background:new 0 0 500 500;" xml:space="preserve">
<style type="text/css">
	.st0{display:none;fill:#D8D8D8;}
	.st1{display:none;opacity:0.5;}
	.st2{display:inline;fill:#D8D8D8;}
	.st3{display:inline;}
	.st4{fill:#D8D8D8;}
	.st5{fill:#B7B7B7;}
	.st6{fill:#2D3E50;}
	.st7{fill:#1D2333;}
	.st8{fill:#E6E6E6;}
	.st9{fill:#FFFFFF;}
	.st10{fill:#EDB92B;}
	.st11{fill:#3BC161;}
	.st12{fill:#DC4131;}
	.st13{fill:#4173F7;}
	.st14{opacity:0.3;}
	.st15{fill:#686868;}
	.st16{opacity:0.2;enable-background:new    ;}
	.st17{opacity:0.2;fill:#FFFFFF;enable-background:new    ;}
	.st18{fill:#2956D7;}
	.st19{fill:#ED9B06;}
	.st20{fill:#AD1931;}
	.st21{fill:#EAB287;}
	.st22{opacity:0.2;}
	.st23{fill:#DE9367;}
	.st24{opacity:0.5;fill:#2D3E50;enable-background:new    ;}
</style>
<g id="OBJECTS">
	<rect x="-2.2" y="316.1" class="st0" width="500" height="178.7"/>
	<g class="st1">
		<ellipse class="st2" cx="247.8" cy="257.9" rx="198.4" ry="198.4"/>
		<g class="st3">
			<g>
				<path class="st4" d="M242.7,473.1c0-2.2,1.8-4,4-4l0,0c2.2,0,4,1.8,4,4l0,0c0,2.2-1.8,4-4,4l0,0c0,0,0,0-0.1,0l0,0
					C244.5,477.1,242.7,475.3,242.7,473.1z M228.9,476.3c-2.2-0.2-3.8-2.1-3.6-4.3l0,0c0.2-2.2,2.1-3.8,4.3-3.6l0,0
					c2.2,0.2,3.8,2.1,3.6,4.3l0,0c-0.2,2.1-2,3.7-4,3.6l0,0C229.1,476.3,229,476.3,228.9,476.3z M260.3,472.8
					c-0.2-2.2,1.5-4.1,3.7-4.3l0,0c2.2-0.2,4.1,1.5,4.3,3.7l0,0c0.2,2.2-1.5,4.1-3.7,4.3l0,0l0,0l0,0c-0.1,0-0.3,0-0.4,0l0,0
					C262.1,476.4,260.4,474.9,260.3,472.8z M211.2,474L211.2,474L211.2,474c-2.2-0.4-3.6-2.4-3.3-4.6l0,0c0.4-2.2,2.4-3.6,4.6-3.3
					l0,0c2.2,0.4,3.6,2.4,3.3,4.6l0,0c-0.3,2-2.1,3.4-4,3.3l0,0C211.5,474.1,211.4,474.1,211.2,474z M277.7,471.1
					c-0.4-2.2,1.1-4.2,3.3-4.6l0,0c2.2-0.3,4.2,1.1,4.6,3.3l0,0c0.3,2.2-1.1,4.2-3.3,4.6l0,0c0,0,0,0,0,0l0,0c-0.2,0-0.5,0.1-0.7,0
					l0,0C279.7,474.4,278.1,473,277.7,471.1z M193.7,470.3c-2.1-0.5-3.4-2.7-2.9-4.8l0,0c0.5-2.1,2.7-3.4,4.8-2.9l0,0
					c2.1,0.5,3.4,2.7,2.9,4.8l0,0c-0.5,1.8-2.1,3-3.9,3l0,0C194.3,470.4,194,470.4,193.7,470.3z M295,467.9
					c-0.5-2.1,0.8-4.3,2.9-4.8h0c2.1-0.5,4.3,0.8,4.8,2.9l0,0c0.5,2.1-0.8,4.3-2.9,4.8l0,0l0,0l0,0c-0.3,0.1-0.7,0.1-1,0.1l0,0
					C297,470.9,295.4,469.7,295,467.9z M176.6,465.2C176.6,465.2,176.6,465.2,176.6,465.2L176.6,465.2c-2.1-0.7-3.2-3-2.5-5.1l0,0
					c0.7-2.1,3-3.2,5.1-2.5l0,0c2.1,0.7,3.2,3,2.5,5.1l0,0c-0.6,1.7-2.2,2.7-3.9,2.7l0,0C177.4,465.4,177,465.4,176.6,465.2z
					 M311.9,463.4c-0.7-2.1,0.4-4.3,2.5-5.1l0,0c2.1-0.7,4.3,0.4,5.1,2.5l0,0c0.7,2.1-0.4,4.3-2.5,5l0,0l0,0l0,0
					c-0.5,0.1-0.9,0.2-1.4,0.2l0,0C314,466.1,312.5,465,311.9,463.4z M159.9,458.7c-2-0.9-2.9-3.2-2-5.3l0,0c0.9-2,3.2-2.9,5.3-2
					l0,0c2,0.9,2.9,3.2,2,5.2l0,0c-0.7,1.5-2.2,2.4-3.7,2.4l0,0C160.9,459,160.4,458.9,159.9,458.7z M328.4,457.5
					c-0.9-2,0.1-4.4,2.1-5.2l0,0c2-0.9,4.4,0.1,5.2,2.1l0,0c0.9,2-0.1,4.4-2.1,5.2l0,0c-0.5,0.2-1.1,0.3-1.6,0.3l0,0
					C330.5,459.9,329.1,458.9,328.4,457.5z M143.9,450.8c-1.9-1-2.7-3.5-1.6-5.4l0,0c1-1.9,3.5-2.7,5.4-1.6l0,0
					c1.9,1.1,2.7,3.5,1.6,5.4l0,0c-0.7,1.4-2.1,2.1-3.6,2.1l0,0C145.1,451.3,144.5,451.1,143.9,450.8z M344.4,450.2
					c-1-1.9-0.3-4.4,1.7-5.4l0,0c2-1,4.4-0.3,5.4,1.7l0,0c1,2,0.3,4.4-1.7,5.4l0,0c-0.6,0.3-1.3,0.5-1.9,0.5l0,0
					C346.4,452.3,345.1,451.5,344.4,450.2z M128.5,441.7L128.5,441.7L128.5,441.7c-1.8-1.2-2.4-3.7-1.2-5.5l0,0
					c1.2-1.8,3.7-2.4,5.5-1.2l0,0c1.8,1.2,2.3,3.7,1.1,5.5l0,0c-0.8,1.2-2.1,1.8-3.4,1.8l0,0C129.9,442.3,129.2,442.1,128.5,441.7z
					 M359.7,441.7c-1.2-1.9-0.6-4.3,1.2-5.5l0,0c1.9-1.2,4.3-0.6,5.5,1.2l0,0c1.2,1.8,0.6,4.3-1.2,5.5l0,0c-0.7,0.4-1.5,0.7-2.2,0.6
					l0,0C361.7,443.5,360.4,442.8,359.7,441.7z M114,431.3c-1.7-1.4-2.1-3.9-0.7-5.6l0,0c1.3-1.7,3.9-2.1,5.6-0.7l0,0
					c1.7,1.3,2.1,3.9,0.7,5.6l0,0c-0.8,1-2,1.6-3.2,1.5l0,0C115.5,432.1,114.7,431.8,114,431.3z M374.3,431.9
					c-1.3-1.8-1-4.2,0.8-5.6l0,0c1.8-1.3,4.2-1,5.6,0.8l0,0c1.3,1.8,1,4.3-0.8,5.6l0,0c-0.7,0.6-1.6,0.8-2.5,0.8l0,0
					C376.2,433.4,375,432.9,374.3,431.9z M100.4,419.8c-1.6-1.5-1.7-4-0.3-5.6l0,0c1.5-1.6,4-1.7,5.6-0.3l0,0c1.6,1.5,1.7,4,0.2,5.6
					l0,0c-0.8,0.9-1.9,1.3-3,1.3l0,0C102,420.8,101.1,420.4,100.4,419.8z M388,421c-1.5-1.6-1.4-4.2,0.3-5.6l0,0
					c1.6-1.5,4.2-1.3,5.6,0.3l0,0c1.5,1.6,1.3,4.2-0.3,5.6l0,0c-0.8,0.7-1.8,1-2.8,1l0,0C389.8,422.3,388.7,421.8,388,421z
					 M87.7,407.1c-1.5-1.6-1.4-4.1,0.2-5.6l0,0c1.6-1.5,4.1-1.4,5.6,0.2l0,0c1.5,1.6,1.4,4.1-0.2,5.6l0,0c-0.8,0.7-1.8,1.1-2.8,1.1
					l0,0C89.5,408.4,88.5,408,87.7,407.1z M400.8,409c-1.6-1.5-1.7-4-0.2-5.7l0,0c1.5-1.6,4-1.7,5.7-0.2l0,0c1.6,1.5,1.7,4,0.2,5.7
					l0,0l0,0l0,0c-0.8,0.8-1.9,1.3-3,1.2l0,0C402.5,410,401.5,409.7,400.8,409z M76.1,393.6c-1.4-1.7-1.1-4.2,0.7-5.6l0,0
					c1.7-1.4,4.2-1.1,5.6,0.7l0,0c1.4,1.7,1.1,4.2-0.7,5.6l0,0c-0.7,0.6-1.7,0.9-2.5,0.8l0,0C78,395.1,76.9,394.5,76.1,393.6z
					 M412.5,395.9c-1.7-1.4-2-3.9-0.6-5.6v0c1.4-1.7,3.9-2,5.6-0.6l0,0c1.7,1.4,2,3.9,0.6,5.6l0,0c-0.8,1-2,1.5-3.2,1.5l0,0
					C414.1,396.8,413.2,396.5,412.5,395.9z M65.6,379.1C65.6,379.1,65.6,379.1,65.6,379.1L65.6,379.1c-1.2-1.8-0.7-4.3,1.1-5.5l0,0
					c1.8-1.2,4.3-0.7,5.5,1.1l0,0c1.2,1.8,0.7,4.3-1.1,5.5l0,0c-0.7,0.5-1.5,0.7-2.3,0.7l0,0C67.6,380.8,66.4,380.2,65.6,379.1z
					 M423.2,382c-1.8-1.2-2.3-3.7-1.1-5.5l0,0c1.2-1.8,3.7-2.3,5.5-1.1l0,0c1.8,1.2,2.3,3.7,1.1,5.5l0,0c-0.8,1.2-2.1,1.8-3.4,1.8
					l0,0C424.6,382.7,423.9,382.5,423.2,382z M56.4,363.8c-1.1-1.9-0.4-4.3,1.6-5.4l0,0c1.9-1.1,4.3-0.4,5.4,1.6l0,0
					c1.1,1.9,0.4,4.3-1.6,5.4l0,0c-0.6,0.4-1.3,0.5-2,0.5l0,0C58.4,365.8,57.1,365.1,56.4,363.8z M432.7,367.3
					c-1.9-1.1-2.6-3.5-1.5-5.4l0,0c1.1-1.9,3.5-2.6,5.4-1.5l0,0c1.9,1.1,2.6,3.5,1.5,5.4l0,0c0,0,0,0,0,0l0,0
					c-0.7,1.3-2.1,2.1-3.6,2l0,0C433.9,367.8,433.3,367.6,432.7,367.3z M48.5,347.8c-0.9-2,0-4.4,2-5.3l0,0c2-0.9,4.4,0,5.3,2l0,0
					c0.9,2,0,4.4-2,5.3l0,0c-0.6,0.2-1.1,0.4-1.7,0.3l0,0C50.5,350.1,49.1,349.3,48.5,347.8z M441,351.8c-2-0.9-2.9-3.3-2-5.3l0,0
					c0.9-2,3.3-2.9,5.3-2l0,0c2,0.9,2.9,3.3,2,5.3l0,0c-0.7,1.5-2.2,2.3-3.7,2.3l0,0C442,352.1,441.5,352,441,351.8z M41.8,331.2
					c-0.7-2.1,0.4-4.4,2.5-5.1l0,0c2.1-0.7,4.3,0.4,5.1,2.4l0,0c0.7,2.1-0.4,4.3-2.4,5.1l0,0c-0.5,0.2-0.9,0.2-1.4,0.2l0,0
					C43.9,333.9,42.4,332.8,41.8,331.2z M447.9,335.7c-2.1-0.8-3.1-3-2.4-5.1l0,0c0.8-2.1,3-3.1,5.1-2.4l0,0c2.1,0.8,3.1,3,2.4,5.1
					l0,0l0,0l0,0c-0.6,1.6-2.2,2.7-3.8,2.6l0,0C448.8,335.9,448.4,335.8,447.9,335.7z M36.6,314.1c-0.6-2.1,0.7-4.3,2.8-4.9l0,0
					c2.1-0.6,4.3,0.7,4.9,2.8l0,0c0.5,2.1-0.7,4.3-2.9,4.9l0,0c-0.4,0.1-0.7,0.1-1.1,0.1l0,0C38.6,317.1,37.1,315.9,36.6,314.1z
					 M453.5,319.1c-2.1-0.6-3.4-2.8-2.8-4.9l0,0c0.6-2.1,2.8-3.4,4.9-2.8l0,0c2.1,0.6,3.4,2.8,2.8,4.9l0,0c-0.5,1.8-2.2,3-3.9,2.9
					l0,0C454.2,319.2,453.9,319.1,453.5,319.1z M32.8,296.7L32.8,296.7L32.8,296.7c-0.4-2.2,1.1-4.2,3.2-4.6l0,0
					c2.2-0.4,4.2,1.1,4.6,3.3l0,0c0.4,2.2-1.1,4.2-3.2,4.6l0,0c-0.3,0-0.5,0.1-0.8,0.1l0,0C34.8,300,33.1,298.6,32.8,296.7z
					 M457.8,302c-2.2-0.4-3.6-2.5-3.2-4.6l0,0c0.4-2.2,2.5-3.6,4.6-3.2l0,0c2.2,0.4,3.6,2.5,3.2,4.6l0,0l0,0l0,0
					c-0.4,2-2.1,3.3-4,3.3l0,0C458.2,302.1,458,302.1,457.8,302z M30.5,279L30.5,279L30.5,279c-0.2-2.2,1.4-4.1,3.6-4.3l0,0
					c2.2-0.2,4.1,1.4,4.3,3.6l0,0c0.2,2.2-1.4,4.1-3.6,4.3l0,0c-0.2,0-0.3,0-0.4,0l0,0C32.3,282.6,30.6,281,30.5,279z M460.6,284.7
					c-2.2-0.2-3.8-2.2-3.6-4.4l0,0c0.2-2.2,2.2-3.8,4.4-3.6l0,0c2.2,0.2,3.8,2.2,3.6,4.4l0,0l0,0l0,0c-0.2,2.1-2,3.6-4,3.6l0,0
					C460.8,284.7,460.7,284.7,460.6,284.7z M29.6,261.1c0-2.2,1.7-4,3.9-4l0,0c2.2,0,4,1.7,4,3.9l0,0c0,2.2-1.8,4-4,4l0,0
					c0,0-0.1,0-0.1,0l0,0C31.3,265.1,29.6,263.3,29.6,261.1z M458.1,263.2c0-2.2,1.9-4,4.1-3.9l0,0c2.2,0,4,1.9,3.9,4.1l0,0l0,0l0,0
					c0,2.2-1.9,4-4.1,3.9l0,0C459.8,267.2,458,265.4,458.1,263.2z M33.8,247.6c-2.2-0.2-3.9-2.1-3.7-4.3l0,0c0,0,0,0,0,0l0,0
					c0.1-2.2,2.1-3.9,4.3-3.7l0,0c2.2,0.2,3.8,2.1,3.7,4.3l0,0c-0.2,2.1-1.9,3.7-4,3.7l0,0C33.9,247.6,33.9,247.6,33.8,247.6z
					 M457.9,250.1L457.9,250.1c-0.1-2.2,1.6-4.1,3.8-4.1l0,0c2.2-0.1,4.1,1.6,4.1,3.8l0,0l0,0l0,0c0.1,2.2-1.6,4.1-3.8,4.1l0,0
					c-0.1,0-0.2,0-0.2,0l0,0C459.7,253.8,458,252.2,457.9,250.1z M35.4,230.1c-2.2-0.3-3.7-2.4-3.3-4.6l0,0c0.3-2.2,2.4-3.7,4.5-3.3
					l0,0c2.2,0.3,3.7,2.4,3.3,4.5l0,0c-0.3,2-2,3.4-4,3.4l0,0C35.8,230.1,35.6,230.1,35.4,230.1z M456.5,232.9
					c-0.3-2.2,1.3-4.2,3.5-4.4l0,0c2.2-0.3,4.2,1.3,4.5,3.5l0,0c0.3,2.2-1.3,4.2-3.5,4.4l0,0c-0.2,0-0.4,0-0.6,0l0,0
					C458.4,236.4,456.8,234.9,456.5,232.9z M38.5,212.8c-2.1-0.5-3.5-2.7-3-4.8l0,0c0.5-2.1,2.7-3.5,4.8-3l0,0
					c2.1,0.5,3.5,2.7,2.9,4.8l0,0c-0.4,1.9-2.1,3.1-4,3.1l0,0C39,212.9,38.7,212.9,38.5,212.8z M453.7,215.9
					c-0.4-2.1,0.9-4.3,3.1-4.7l0,0c2.2-0.4,4.3,0.9,4.7,3.1l0,0c0.4,2.1-0.9,4.3-3.1,4.7l0,0c-0.3,0.1-0.6,0.1-0.9,0.1l0,0
					C455.7,219.1,454.1,217.8,453.7,215.9z M42.9,195.9c-2.1-0.7-3.2-2.9-2.6-5l0,0c0.7-2.1,3-3.2,5-2.5l0,0c2.1,0.7,3.2,2.9,2.5,5
					l0,0c-0.6,1.7-2.2,2.8-3.9,2.7l0,0C43.7,196.1,43.3,196,42.9,195.9z M449.5,199.2c-0.6-2.1,0.6-4.3,2.7-5l0,0
					c2.1-0.6,4.3,0.6,5,2.7l0,0c0.6,2.1-0.6,4.3-2.7,5l0,0c-0.4,0.1-0.8,0.2-1.2,0.2l0,0C451.6,202.1,450,200.9,449.5,199.2z
					 M48.7,179.3c-2-0.9-3-3.2-2.1-5.2l0,0c0.9-2,3.2-3,5.2-2.1l0,0c2,0.9,3,3.2,2.1,5.2l0,0c-0.7,1.6-2.2,2.5-3.8,2.4l0,0
					C49.7,179.6,49.2,179.5,48.7,179.3z M444,182.9c-0.8-2.1,0.2-4.4,2.3-5.2l0,0c2-0.8,4.4,0.2,5.2,2.3l0,0
					c0.8,2.1-0.2,4.4-2.3,5.2l0,0c-0.5,0.2-1,0.3-1.5,0.3l0,0C446,185.5,444.6,184.5,444,182.9z M55.9,163.3c-2-1-2.7-3.4-1.7-5.4
					l0,0c1-2,3.4-2.7,5.4-1.7l0,0c2,1,2.7,3.4,1.7,5.4l0,0c-0.7,1.4-2.2,2.2-3.6,2.1l0,0C57.1,163.7,56.5,163.6,55.9,163.3z
					 M437.1,167.2L437.1,167.2c-1-2-0.1-4.4,1.9-5.3l0,0c2-1,4.4-0.1,5.3,1.8l0,0c1,2,0.1,4.4-1.8,5.3l0,0c-0.6,0.3-1.2,0.4-1.8,0.4
					l0,0C439.2,169.4,437.8,168.6,437.1,167.2z M64.4,147.9c-1.9-1.2-2.4-3.6-1.2-5.5l0,0c1.2-1.9,3.6-2.4,5.5-1.2l0,0
					c1.9,1.2,2.4,3.6,1.2,5.5l0,0c-0.8,1.2-2.1,1.9-3.5,1.8l0,0C65.7,148.5,65,148.3,64.4,147.9z M429,152c-1.1-1.9-0.5-4.3,1.4-5.5
					l0,0c1.9-1.1,4.4-0.5,5.5,1.4l0,0l0,0l0,0c1.1,1.9,0.5,4.3-1.4,5.5l0,0c-0.7,0.4-1.4,0.6-2.1,0.5l0,0
					C431,153.9,429.7,153.2,429,152z M74.1,133.3c-1.8-1.3-2.1-3.8-0.8-5.6l0,0c1.3-1.8,3.8-2.1,5.6-0.8l0,0
					c1.8,1.3,2.1,3.8,0.8,5.6l0,0c-0.8,1.1-2,1.6-3.3,1.6l0,0C75.6,134.1,74.8,133.8,74.1,133.3z M419.6,137.6
					c-1.3-1.8-0.8-4.3,1-5.6l0,0c1.8-1.3,4.3-0.8,5.6,1l0,0c1.3,1.8,0.8,4.3-1,5.5l0,0c-0.7,0.5-1.6,0.7-2.4,0.7l0,0
					C421.6,139.2,420.4,138.6,419.6,137.6z M84.9,119.5c-1.6-1.5-1.8-4-0.3-5.6l0,0c1.5-1.6,4-1.8,5.6-0.3l0,0
					c1.6,1.5,1.8,4,0.3,5.6l0,0c-0.8,0.9-1.9,1.4-3.1,1.3l0,0C86.6,120.5,85.7,120.2,84.9,119.5z M409.1,123.9
					c-1.4-1.7-1.2-4.2,0.5-5.6l0,0c1.7-1.4,4.2-1.2,5.6,0.5l0,0c1.4,1.7,1.2,4.2-0.5,5.6l0,0c-0.8,0.6-1.7,0.9-2.6,0.9l0,0
					C411,125.3,409.9,124.9,409.1,123.9z M96.9,106.7c-1.5-1.6-1.5-4.1,0.1-5.6l0,0c1.6-1.5,4.1-1.5,5.6,0.1l0,0
					c1.5,1.6,1.5,4.1-0.1,5.6l0,0c-0.8,0.7-1.8,1.1-2.8,1.1l0,0C98.7,107.9,97.6,107.5,96.9,106.7z M397.5,111.2L397.5,111.2
					c-1.5-1.6-1.5-4.1,0.1-5.6l0,0c1.6-1.5,4.1-1.5,5.6,0l0,0c1.5,1.6,1.5,4.1,0,5.6l0,0c-0.8,0.8-1.8,1.2-2.9,1.2l0,0
					C399.3,112.4,398.3,112,397.5,111.2z M109.8,94.9c-1.4-1.7-1.1-4.2,0.6-5.6l0,0c1.7-1.4,4.2-1.1,5.6,0.6l0,0
					c1.4,1.7,1.1,4.2-0.6,5.6l0,0c-0.8,0.6-1.7,0.9-2.6,0.9l0,0C111.7,96.3,110.6,95.8,109.8,94.9z M385,99.4L385,99.4
					c-1.7-1.4-1.8-3.9-0.4-5.6l0,0c1.4-1.7,3.9-1.8,5.6-0.4l0,0c1.7,1.4,1.9,3.9,0.4,5.6l0,0c-0.8,0.9-2,1.4-3.1,1.4l0,0
					C386.6,100.4,385.7,100.1,385,99.4z M123.7,84.1c-1.3-1.8-0.8-4.3,1-5.5l0,0c1.8-1.3,4.3-0.8,5.5,1l0,0c1.2,1.8,0.8,4.3-1,5.5
					l0,0c-0.7,0.5-1.5,0.7-2.3,0.7l0,0C125.7,85.8,124.5,85.2,123.7,84.1z M371.5,88.7L371.5,88.7c-1.8-1.3-2.2-3.8-0.9-5.6l0,0
					c1.3-1.8,3.8-2.2,5.6-0.9l0,0l0,0l0,0c1.8,1.3,2.2,3.8,0.9,5.6l0,0c-0.8,1.1-2,1.7-3.3,1.6l0,0C373,89.5,372.2,89.3,371.5,88.7z
					 M138.4,74.5c-1.1-1.9-0.4-4.3,1.5-5.4l0,0c1.9-1.1,4.3-0.4,5.4,1.5l0,0c1.1,1.9,0.4,4.3-1.5,5.4l0,0c-0.6,0.4-1.4,0.5-2.1,0.5
					l0,0C140.4,76.5,139.1,75.8,138.4,74.5z M357.2,79.2c-1.9-1.1-2.5-3.6-1.3-5.5l0,0c1.1-1.9,3.6-2.5,5.5-1.3l0,0c0,0,0,0,0,0l0,0
					c1.9,1.2,2.5,3.6,1.3,5.5l0,0c-0.8,1.3-2.1,1.9-3.5,1.9l0,0C358.5,79.7,357.8,79.6,357.2,79.2z M153.8,66.2
					c-0.9-2-0.1-4.4,1.9-5.3l0,0l0,0l0,0c2-0.9,4.4-0.1,5.3,1.9l0,0c0.9,2,0.1,4.4-1.9,5.3l0,0c-0.6,0.3-1.2,0.4-1.8,0.4l0,0
					C155.9,68.5,154.5,67.6,153.8,66.2z M342.1,70.8L342.1,70.8c-2-1-2.8-3.4-1.8-5.3l0,0c1-2,3.4-2.8,5.3-1.8l0,0
					c2,1,2.8,3.4,1.8,5.3l0,0c-0.7,1.4-2.2,2.2-3.7,2.2l0,0C343.2,71.2,342.7,71.1,342.1,70.8z M169.9,59.1
					c-0.8-2.1,0.3-4.3,2.4-5.1l0,0l0,0l0,0c2.1-0.8,4.4,0.3,5.1,2.4l0,0c0.8,2.1-0.3,4.3-2.4,5.1l0,0c-0.5,0.2-1,0.3-1.5,0.2l0,0
					C171.9,61.7,170.5,60.7,169.9,59.1z M326.4,63.7c-2-0.8-3-3.1-2.2-5.2l0,0c0.8-2,3.1-3,5.2-2.2l0,0c2,0.8,3,3.1,2.2,5.2l0,0
					c-0.6,1.6-2.2,2.5-3.8,2.5l0,0C327.4,64,326.9,63.9,326.4,63.7z M186.4,53.4c-0.6-2.1,0.6-4.3,2.8-4.9l0,0l0,0l0,0
					c2.1-0.6,4.3,0.6,4.9,2.8l0,0c0.6,2.1-0.6,4.3-2.8,4.9l0,0c-0.4,0.1-0.8,0.2-1.1,0.2l0,0C188.5,56.3,186.9,55.2,186.4,53.4z
					 M310.2,58L310.2,58c-2.1-0.7-3.3-2.9-2.6-5l0,0c0.7-2.1,2.9-3.3,5-2.6l0,0c2.1,0.6,3.3,2.9,2.6,5l0,0c-0.5,1.7-2.2,2.8-3.9,2.8
					l0,0C311,58.1,310.6,58.1,310.2,58z M203.4,49.1c-0.4-2.2,1-4.3,3.2-4.7l0,0c0,0,0,0,0,0l0,0c2.2-0.4,4.3,1,4.7,3.2l0,0
					c0.4,2.2-1,4.2-3.2,4.7h0c-0.3,0.1-0.6,0.1-0.8,0.1l0,0C205.4,52.3,203.8,51,203.4,49.1z M293.6,53.6c-2.2-0.5-3.5-2.6-3-4.8
					l0,0c0.5-2.2,2.6-3.5,4.8-3l0,0c2.1,0.5,3.5,2.6,3,4.8l0,0c-0.4,1.9-2.1,3.2-4,3.1l0,0C294.1,53.6,293.8,53.6,293.6,53.6z
					 M220.7,46.2c-0.2-2.2,1.3-4.2,3.5-4.4l0,0c2.2-0.2,4.2,1.4,4.4,3.6l0,0c0.2,2.2-1.3,4.2-3.5,4.4l0,0c-0.2,0-0.4,0-0.5,0l0,0
					C222.6,49.7,220.9,48.2,220.7,46.2z M276.6,50.5L276.6,50.5c-2.2-0.3-3.7-2.3-3.4-4.5l0,0c0.3-2.2,2.3-3.7,4.5-3.4l0,0l0,0l0,0
					c2.2,0.3,3.7,2.3,3.4,4.5l0,0c-0.3,2-2,3.5-4,3.4l0,0C276.9,50.5,276.8,50.5,276.6,50.5z M238.2,44.7c-0.1-2.2,1.7-4,3.9-4.1
					l0,0l0,0l0,0c2.2-0.1,4,1.7,4.1,3.9l0,0c0.1,2.2-1.7,4-3.9,4.1l0,0c-0.1,0-0.1,0-0.2,0l0,0C240,48.6,238.3,46.9,238.2,44.7z
					 M255.8,44.7c0.1-2.2,2-3.9,4.2-3.8l0,0c2.2,0.1,3.9,2,3.8,4.2l0,0c-0.1,2.2-2,3.9-4.2,3.8l0,0
					C257.3,48.8,255.6,46.9,255.8,44.7z"/>
			</g>
		</g>
	</g>
	<g>
		<ellipse class="st5" cx="248.2" cy="362.6" rx="219.1" ry="14.5"/>
		<g>
			<g>
				<path class="st6" d="M415.4,147.2V328c0,7.5-6,13.5-13.5,13.5H93.7c-7.5,0-13.5-6-13.5-13.5V147.2c0-7.5,6-13.5,13.5-13.5h308.2
					C409.3,133.7,415.4,139.7,415.4,147.2z"/>
				<path class="st7" d="M415.4,237.6V328c0,7.5-6,13.5-13.5,13.5H93.7c-7.5,0-13.5-6-13.5-13.5v-90.4L415.4,237.6L415.4,237.6z"/>
				<path class="st8" d="M400.5,155.8V308c0,4.5-3.9,8.1-8.7,8.1H103.7c-2.6,0-4.9-1-6.4-2.7c-1.4-1.4-2.2-3.3-2.2-5.4V155.8
					c0-4.5,3.9-8.1,8.7-8.1h288.1c1.6,0,3.1,0.4,4.4,1.1C398.8,150.2,400.5,152.9,400.5,155.8z"/>
				<g>
					<rect x="119.8" y="173.3" class="st9" width="258.2" height="128.6"/>
					<rect x="119.8" y="173.3" class="st5" width="258.2" height="11"/>
					<g>
						<path class="st10" d="M356.7,178.9c0,1.3-1,2.3-2.3,2.3c-1.3,0-2.3-1-2.3-2.3s1-2.3,2.3-2.3
							C355.6,176.6,356.7,177.6,356.7,178.9z"/>
						<path class="st11" d="M364.1,178.9c0,1.3-1,2.3-2.3,2.3c-1.3,0-2.3-1-2.3-2.3s1-2.3,2.3-2.3
							C363.1,176.6,364.1,177.6,364.1,178.9z"/>
						<path class="st12" d="M371.2,178.9c0,1.3-1,2.3-2.3,2.3s-2.3-1-2.3-2.3s1-2.3,2.3-2.3C370.1,176.6,371.2,177.6,371.2,178.9z"
							/>
					</g>
					<g>
						
							<ellipse transform="matrix(8.248050e-02 -0.9966 0.9966 8.248050e-02 -12.0694 469.3994)" class="st13" cx="248.9" cy="241.3" rx="39.3" ry="39.3"/>
						<polygon class="st9" points="235.1,261.9 235.1,220.6 270.4,241.3 						"/>
					</g>
					<g class="st14">
						<rect x="134.5" y="282.8" class="st15" width="41.4" height="5.5"/>
						<rect x="134.5" y="270.1" class="st15" width="41.4" height="5.5"/>
						<rect x="134.5" y="257.5" class="st15" width="41.4" height="5.5"/>
						<rect x="134.5" y="244.8" class="st15" width="41.4" height="5.5"/>
						<rect x="134.5" y="232.2" class="st15" width="41.4" height="5.5"/>
						<rect x="134.5" y="219.5" class="st15" width="41.4" height="5.5"/>
						<rect x="134.5" y="206.9" class="st15" width="41.4" height="5.5"/>
						<rect x="134.5" y="194.2" class="st15" width="41.4" height="5.5"/>
					</g>
					<g class="st14">
						<rect x="320.4" y="282.8" class="st15" width="41.4" height="5.5"/>
						<rect x="320.4" y="270.1" class="st15" width="41.4" height="5.5"/>
						<rect x="320.4" y="257.5" class="st15" width="41.4" height="5.5"/>
						<rect x="320.4" y="244.8" class="st15" width="41.4" height="5.5"/>
						<rect x="320.4" y="232.2" class="st15" width="41.4" height="5.5"/>
						<rect x="320.4" y="219.5" class="st15" width="41.4" height="5.5"/>
						<rect x="320.4" y="206.9" class="st15" width="41.4" height="5.5"/>
						<rect x="320.4" y="194.2" class="st15" width="41.4" height="5.5"/>
					</g>
				</g>
			</g>
			<path class="st6" d="M446.7,334.3v1.2c0,5.8-1.8,11.1-5,15.4c-4.8,6.6-12.6,10.9-21.3,10.9H75.2c-8.8,0-16.6-4.3-21.3-10.9
				c-3.1-4.3-5-9.6-5-15.4v-1.2H446.7z"/>
			<path class="st4" d="M203.2,334.3v0.3c0,2.1,1.4,3.8,3.1,3.8h81.2c1.7,0,3.1-1.7,3.1-3.8v-0.3H203.2z"/>
			<path class="st4" d="M406.4,343.2h-22.2c-0.6,0-1-0.5-1-1v-1.2c0-0.6,0.5-1,1-1h22.2c0.6,0,1,0.5,1,1v1.2
				C407.4,342.7,406.9,343.2,406.4,343.2z"/>
			<path class="st7" d="M441.7,350.9c-4.8,6.6-12.6,10.9-21.3,10.9H75.2c-8.8,0-16.6-4.3-21.3-10.9H441.7z"/>
			<g>
				<path class="st5" d="M400.5,156.4v9.6H95.1v-9.6c0-1.8,0.6-3.6,1.6-5c1.6-2.2,4.2-3.7,7.1-3.7h288.1c2.9,0,5.5,1.5,7.1,3.7
					C399.9,152.8,400.5,154.5,400.5,156.4z"/>
				<g>
					<path class="st10" d="M378,159.1c0,1.3-1,2.3-2.3,2.3c-1.3,0-2.3-1-2.3-2.3s1-2.3,2.3-2.3C377,156.8,378,157.9,378,159.1z"/>
					<path class="st11" d="M385.4,159.1c0,1.3-1,2.3-2.3,2.3c-1.3,0-2.3-1-2.3-2.3s1-2.3,2.3-2.3
						C384.4,156.8,385.4,157.9,385.4,159.1z"/>
					<path class="st12" d="M392.5,159.1c0,1.3-1,2.3-2.3,2.3c-1.3,0-2.3-1-2.3-2.3s1-2.3,2.3-2.3
						C391.5,156.8,392.5,157.9,392.5,159.1z"/>
				</g>
				<path class="st9" d="M326,159.7H165.5c-0.8,0-1.5-0.7-1.5-1.5v-1.8c0-0.8,0.7-1.5,1.5-1.5H326c0.8,0,1.5,0.7,1.5,1.5v1.8
					C327.5,159.1,326.8,159.7,326,159.7z"/>
				<polygon class="st6" points="124.9,157.3 124.9,160.3 122.4,158.8 119.8,157.3 122.4,155.8 124.9,154.4 				"/>
				<polygon class="st6" points="133,157.3 133,160.3 135.6,158.8 138.1,157.3 135.6,155.8 133,154.4 				"/>
			</g>
			<path class="st16" d="M398.9,151.4H96.6c1.6-2.2,4.2-3.7,7.1-3.7h288.1C394.8,147.7,397.4,149.2,398.9,151.4z"/>
			<path class="st17" d="M400.5,155.8v150.6c0,4.4-3.9,8-8.7,8H103.7c-2.6,0-4.9-1-6.4-2.7l298.9-162.9
				C398.8,150.3,400.5,152.9,400.5,155.8z"/>
		</g>
	</g>
	<g>
		<path class="st5" d="M203.4,419.8l-26-29.1h-141c-2.2,0.9-3.2,3.7-1.6,5.8l15.9,20.8c4.2,5.5,10.8,8.8,17.7,8.8h132.2
			C203.9,426.1,205.6,422.3,203.4,419.8z"/>
		<g>
			<g>
				<g>
					<path class="st10" d="M35,378.8c1.8,6.8,23.7,29.4,28.3,34.2c3.1,4,7.9,6.6,13.3,6.7c0.1,0,0.2,0,0.3,0h107.4
						c1.4,0,2.5-1.1,2.5-2.5c0-1.4-1.1-2.5-2.5-2.5H77.2c-6.9,0-12.6-5.6-12.6-12.6s5.6-12.6,12.6-12.6h107.1c1.4,0,2.5-1.1,2.5-2.5
						c0-1.4-1.1-2.5-2.5-2.5h-0.2l0.4-0.8l-44.9-24H49.3C49.3,359.8,30.5,362,35,378.8z"/>
				</g>
			</g>
			<path class="st16" d="M65,396.7c0-0.1,0.1-0.2,0.2-0.3c2.1-4.1,6.2-6.6,10.8-6.8c0.4,0,0.8-0.1,1.3-0.1h107.1
				c1.3,0,2.4-1.1,2.5-2.4H77.2C71.3,387.2,66.3,391.2,65,396.7z"/>
			<g>
				<path class="st9" d="M76.3,414.8h108v-25.1h-108c-4.7,0-9,2.6-11.1,6.8l0,0c-1.9,3.6-1.9,8,0,11.6l0,0
					C67.3,412.2,71.6,414.8,76.3,414.8z"/>
			</g>
			<g>
				<g>
					<g>
						<path class="st4" d="M184.3,397.2H77.6c-0.5,0-0.8-0.4-0.8-0.8s0.4-0.8,0.8-0.8h106.6L184.3,397.2L184.3,397.2z"/>
					</g>
				</g>
				<g>
					<g>
						<path class="st4" d="M184.3,403H77.6c-0.5,0-0.8-0.4-0.8-0.8c0-0.5,0.4-0.8,0.8-0.8h106.6L184.3,403L184.3,403z"/>
					</g>
				</g>
				<g>
					<g>
						<path class="st4" d="M184.3,408.8H77.6c-0.5,0-0.8-0.4-0.8-0.8s0.4-0.8,0.8-0.8h106.6L184.3,408.8L184.3,408.8z"/>
					</g>
				</g>
			</g>
		</g>
		<g>
			<g>
				<g>
					<path class="st13" d="M34.8,343.5c1.9,7.1,25.8,31.7,28.9,34.8c3.1,3.8,7.8,6.2,13,6.4c0.1,0,0.2,0,0.3,0h107.4
						c1.4,0,2.5-1.1,2.5-2.5c0-1.4-1.1-2.5-2.5-2.5H77.2c-6.9,0-12.6-5.6-12.6-12.6s5.6-12.6,12.6-12.6h107.1c1.4,0,2.5-1.1,2.5-2.5
						c0-1.4-1.1-2.5-2.5-2.5h-0.5l0.5-1.1l-44.9-24H49.1C49.1,324.5,30.2,326.7,34.8,343.5z"/>
				</g>
			</g>
			<path class="st16" d="M65,361.6c0-0.1,0.1-0.2,0.1-0.3c2.1-4.1,6.3-6.7,10.9-6.8c0.4,0,0.7,0,1.1,0h107.1c1.3,0,2.4-1.1,2.5-2.4
				H77.2C71.3,352.1,66.4,356.1,65,361.6z"/>
			<g>
				<path class="st9" d="M76.3,379.7h108v-25.1h-108c-4.7,0-9,2.6-11.1,6.8l0,0c-1.9,3.6-1.9,8,0,11.6l0,0
					C67.3,377,71.6,379.7,76.3,379.7z"/>
			</g>
			<g>
				<g>
					<g>
						<path class="st4" d="M184.3,362.1H77.6c-0.5,0-0.8-0.4-0.8-0.8s0.4-0.8,0.8-0.8h106.6V362.1z"/>
					</g>
				</g>
				<g>
					<g>
						<path class="st4" d="M184.3,367.9H77.6c-0.5,0-0.8-0.4-0.8-0.8s0.4-0.8,0.8-0.8h106.6V367.9z"/>
					</g>
				</g>
				<g>
					<g>
						<path class="st4" d="M184.3,373.7H77.6c-0.5,0-0.8-0.4-0.8-0.8s0.4-0.8,0.8-0.8h106.6V373.7z"/>
					</g>
				</g>
			</g>
		</g>
		<g>
			<g>
				<path class="st9" d="M76.3,344.6h108v-25.1h-108c-4.7,0-9,2.6-11.1,6.8l0,0c-1.9,3.6-1.9,8,0,11.6l0,0
					C67.3,341.9,71.6,344.6,76.3,344.6z"/>
			</g>
			<g>
				<path class="st12" d="M36.3,310c1.3,4.8,12.6,17.5,20.7,26.2c0.1,0.1,0.1,0.2,0.2,0.2c0.1,0.1,0.2,0.2,0.3,0.3
					c2.5,2.7,4.7,5,6.1,6.5c0,0,0.1,0.1,0.1,0.1c0.9,0.9,1.4,1.5,1.6,1.7c0,0,0.1,0.1,0.1,0.1c0,0,0,0,0,0c3,2.7,6.9,4.3,11.1,4.4
					c0.1,0,0.2,0,0.3,0h107.4c1.4,0,2.5-1.1,2.5-2.5c0-1.4-1.1-2.5-2.5-2.5H77.2c-5.4,0-9.9-3.4-11.8-8.1c-0.5-1.4-0.8-2.9-0.8-4.4
					c0-1.2,0.2-2.4,0.5-3.5c0,0,0,0,0,0c1.5-5.2,6.4-9,12-9h107.1c1.3,0,2.4-1.1,2.5-2.4v-0.1c0-0.8-0.4-1.5-1-2l0,0
					c-0.2-0.2-0.5-0.3-0.7-0.4l0,0L140.8,291H50.6C50.6,291,31.7,293.2,36.3,310z"/>
			</g>
			<path class="st16" d="M64.6,329.6c0,0.2,0,0.5,0,0.7c0,0.1,0,0.1,0,0.1c0.1-0.7,0.3-1.4,0.5-2c0,0,0,0,0,0c1.5-5.2,6.4-9,12-9
				h107.1c1.3,0,2.4-1.1,2.5-2.4H77.2C70.2,317,64.6,322.7,64.6,329.6z"/>
			<g>
				<g>
					<g>
						<path class="st4" d="M184.3,327H77.6c-0.5,0-0.8-0.4-0.8-0.8s0.4-0.8,0.8-0.8h106.6L184.3,327L184.3,327z"/>
					</g>
				</g>
				<g>
					<g>
						<path class="st4" d="M184.3,332.8H77.6c-0.5,0-0.8-0.4-0.8-0.8s0.4-0.8,0.8-0.8h106.6L184.3,332.8L184.3,332.8z"/>
					</g>
				</g>
				<g>
					<g>
						<path class="st4" d="M184.3,338.6H77.6c-0.5,0-0.8-0.4-0.8-0.8s0.4-0.8,0.8-0.8h106.6L184.3,338.6L184.3,338.6z"/>
					</g>
				</g>
			</g>
		</g>
		<g>
			<path class="st18" d="M60.8,253.2v52.4c34.4,10.3,68.8,10.3,103,0v-52.4H60.8z"/>
			<polygon class="st13" points="114.5,267.4 18.2,247.2 114.5,221.2 206.7,247.2 			"/>
			<g>
				<path class="st10" d="M169.5,316.1c-0.6,0-1-0.5-1-1v-58.9l-56.4-11.8c-0.6-0.1-0.9-0.7-0.8-1.2s0.7-0.9,1.2-0.8l57.2,12
					c0.5,0.1,0.8,0.5,0.8,1v59.7C170.5,315.6,170,316.1,169.5,316.1z"/>
			</g>
			<ellipse class="st18" cx="112.8" cy="243.4" rx="9" ry="3.2"/>
			<g>
				<g>
					<path class="st10" d="M177,335.3c-0.6,0.3-1.2,0.5-1.8,0.7c-0.4,0.1-0.8,0.3-1.2,0.4c-1,0.3-2,0.5-3,0.6
						c-0.4,0-0.8,0.1-1.3,0.1c-1.3,0-2.6-0.1-3.9-0.4c-0.4-0.1-0.9-0.2-1.3-0.3c-0.9-0.3-1.8-0.6-2.7-1c-0.4-0.2-0.6-0.6-0.5-1
						l5.9-18.1c0.7-2,3.6-2,4.2,0l5.9,18.1C177.6,334.6,177.4,335.1,177,335.3z"/>
					<path class="st19" d="M165.8,336.7c-0.4-0.1-0.9-0.2-1.3-0.3l1-4.2L165.8,336.7z"/>
					<path class="st19" d="M175.2,336c-0.4,0.1-0.8,0.3-1.2,0.4l-1-9.2L175.2,336z"/>
					<path class="st19" d="M171,337c-0.4,0-0.8,0.1-1.3,0.1l0.3-5.6L171,337z"/>
				</g>
				<path class="st19" d="M172.7,315.8c0,1.8-1.5,3.3-3.3,3.3s-3.3-1.5-3.3-3.3c0-1.8,1.5-3.3,3.3-3.3S172.7,314,172.7,315.8z"/>
			</g>
		</g>
	</g>
	<g>
		<path class="st9" d="M335,386.7c0,0,1.9,6.9,3.7,8.3c1.8,1.5,7.3,8.7,12.7,9.8s7.5-4.6,0.9-10c-5.3-4.4-9.9-11.3-9.9-11.3
			S339.8,386.3,335,386.7z"/>
		<g>
			<g>
				<path class="st20" d="M295,259.8c0,0,13.1,15.6,18.5,18.1c2.4,1.1,4.8,1.5,6.5,1.6c0.6,0,2.1-0.1,2.2-0.1c0,0,0,0,0,0
					c6.5-0.8,14.2-2.8,23.7-6.7l-1.4-4.4c0,0-5.8,1.2-12.8,1.7c-2.6,0.2-8.6,0.5-10.8,0.8c-0.5-0.2-1.1-0.5-1.6-0.8
					c-9.7-5.3-16.2-15.9-16.2-15.9C300.2,255.3,296.6,257.5,295,259.8z"/>
			</g>
			<g>
				<g>
					<g>
						<path class="st21" d="M344.4,268c0,0,1.3-3.4,3.1-4.3c1.8-1,7-4.3,8.1-3.3s0.9,5.9-3.8,9.9c-2.9,2.6-5.9,2.5-5.9,2.5
							L344.4,268z"/>
					</g>
					<g>
						<g>
							<path class="st7" d="M356,263.4l-7.6,7.1c-0.3,0.3-0.8,0.3-1.2,0.2l-4.7-2.3c-0.1-0.1-0.2-0.2-0.3-0.3l0,0l-0.2-0.8l1.2-0.5
								l12-4.6l0.6-0.2l0.2,0.8l0,0.1c0,0,0,0,0,0C356.2,263.1,356.1,263.3,356,263.4z"/>
						</g>
						<g>
							<g>
								<path class="st6" d="M346.9,269.9l-4.7-2.3c-0.4-0.2-0.4-0.5-0.1-0.8l7.6-7.1c0.3-0.3,0.8-0.3,1.2-0.2l4.7,2.3
									c0.4,0.2,0.4,0.5,0.1,0.8l-7.6,7.1C347.8,270,347.3,270.1,346.9,269.9z"/>
							</g>
						</g>
						<g class="st22">
							<path class="st9" d="M347.5,268.7l-3.6-1.8c-0.4-0.2-0.4-0.5-0.1-0.8l5.9-5.5c0.3-0.3,0.8-0.3,1.2-0.2l3.6,1.8
								c0.4,0.2,0.4,0.5,0.1,0.8l-5.9,5.5C348.4,268.7,347.9,268.8,347.5,268.7z"/>
						</g>
					</g>
					<g>
						<path class="st21" d="M347.4,262c0,0,1.1,0.2,1.2,1.1c0.1,0.9-0.9,0.6-1.5,0.4c-0.6-0.2-1.2,0-1.3,0.1
							C345.5,263.9,345.5,261.7,347.4,262z"/>
					</g>
					<g>
						<path class="st21" d="M352.3,267c0,0,1.7-2.8,3-4.3c0.9-1,1.3,0.5,0.7,1.5C355.4,265.2,354.2,267.3,352.3,267z"/>
					</g>
				</g>
			</g>
		</g>
		<g>
			<g>
				<g>
					<g>
						<path class="st18" d="M295.9,315.5c0,0,17.6-33,29-29.3c7.5,2.5,25.7,38.9,25.7,38.9c-1.7,2.4-5.3,2.3-8.1,0.4
							c0,0-13.5-11.3-18.3-24.1c0,0-14.4,33.3-33.4,33.3C289.5,334.8,292.8,318.8,295.9,315.5z"/>
					</g>
				</g>
			</g>
			<path class="st9" d="M342.5,325.6c0,0-0.5,0.7-0.5,2c0,1.4,0.1,6.1,0.1,6.1l22.9,0c0,0,0.1-3.6-2.8-5.5
				c-2.9-1.9-7.4-0.1-11.6-3.1C350.6,325.2,349.5,326.2,342.5,325.6z"/>
		</g>
		<g>
			<g>
				<path class="st12" d="M285.9,243.7c0,0-8.2,0-12,3.4s-0.2,10.3,3.9,11.2s16.8-0.6,18.1-2.8C297.2,253.3,296.4,243.9,285.9,243.7
					z"/>
			</g>
			<g>
				<g>
					<path class="st12" d="M272.9,317.5l-4-25.8l0.9-35.6l9.6-3.2l0.5-0.2l2.1-0.7l1.7-0.6l10.1,1.4l1.6,0.2l0.6,0.1l7.2,1
						c0.1,22.9-2.1,27.8,2.1,46.4C304.3,309.6,299.7,332.4,272.9,317.5z"/>
				</g>
			</g>
			<g>
				<g>
					<path class="st20" d="M286.6,258.4c-7.2,0-8.9-6.4-8.9-6.5c0-0.1,0.1-0.3,0.2-0.3c0.1,0,0.3,0.1,0.3,0.2c0.1,0.2,1.6,6,8.4,6.1
						c0,0,0.1,0,0.1,0c0.1,0,0.3,0.1,0.3,0.3c0,0.1-0.1,0.3-0.3,0.3C286.6,258.4,286.6,258.4,286.6,258.4z"/>
				</g>
			</g>
			<g>
				<g>
					<path class="st20" d="M293.4,257.4c-0.1,0-0.3-0.1-0.3-0.3c0-0.1,0.1-0.3,0.3-0.3c0.1,0,2.2-0.1,2.7-2.9c0-0.1,0.2-0.2,0.3-0.2
						c0.1,0,0.2,0.2,0.2,0.3C296,257.3,293.4,257.4,293.4,257.4C293.4,257.4,293.4,257.4,293.4,257.4z"/>
				</g>
			</g>
			<g>
				<path class="st20" d="M281.7,293.5c0,0-1.2,9,1.2,13.4c0,0,11.9,0.8,20.6-2.6c0,0-2.2-6.3-2.2-12.4L281.7,293.5z"/>
			</g>
			<g>
				<path class="st9" d="M288,284C288,284,288,284,288,284c-0.2,0-0.3-0.1-0.3-0.3c0.6-6.7-1.9-23.4-1.9-23.6c0-0.1,0.1-0.3,0.2-0.3
					c0.1,0,0.3,0.1,0.3,0.2c0,0.2,2.5,17,1.9,23.7C288.3,283.9,288.2,284,288,284z"/>
			</g>
			<g>
				<path class="st9" d="M296.8,282.7C296.8,282.7,296.8,282.7,296.8,282.7c-0.2,0-0.3-0.1-0.3-0.3c0.6-6.7-2-23.6-2-23.7
					c0-0.1,0.1-0.3,0.2-0.3c0.1,0,0.3,0.1,0.3,0.2c0,0.2,2.6,17.2,2,23.9C297.1,282.6,297,282.7,296.8,282.7z"/>
			</g>
		</g>
		<g>
			<g>
				<g>
					<path class="st7" d="M307.7,228.6c0,0,2,2.3,0,6.4c-2,4.1-3.9,4.2-3.9,4.2S303.8,228.8,307.7,228.6z"/>
				</g>
			</g>
			<g>
				<g>
					<path class="st21" d="M292.6,246.9l-1.9,5.4l-0.9,2.5c-3.9,1.4-8-3.4-8-3.4l2.1-8.7c1.8-0.6,5,1.8,7.1,3.1
						C292,246.4,292.6,246.9,292.6,246.9z"/>
				</g>
			</g>
			<g>
				<g>
					<path class="st23" d="M292.6,246.9l-2.4,6.7c-4.4-2-4.6-9.4-4.6-9.4l5.3,1.6C292,246.4,292.6,246.9,292.6,246.9z"/>
				</g>
			</g>
			<g>
				<g>
					<path class="st21" d="M306.9,235.9c-0.1,0.2-0.1,0.4-0.2,0.6c-0.5,1.7-1.2,3.6-1.9,5.4c-0.2,0.4-0.3,0.8-0.5,1.1
						c-0.1,0.3-0.3,0.7-0.4,1c-0.3,0.7-0.6,1.3-0.9,2c-0.2,0.4-0.4,0.9-0.6,1.3c-0.1,0.3-0.3,0.6-0.5,0.8c-0.5,0.8-1.2,1.5-2,2
						c-1.9,1.2-4.5,1.5-6.7,0.4c-1.8-0.9-3.8-1.9-5.7-3c-0.1-0.1-0.2-0.1-0.3-0.2c-1.5-0.9-2.8-1.8-3.9-2.6
						c-0.1-0.3-0.2-0.5-0.3-0.8c-0.7-2.4-0.9-4.8-0.7-7.3c0.1-1,0.2-2,0.4-3c0-0.1,0-0.2,0-0.2c1.3-4.8,2.8-9.4,2.8-9.4
						c7-5.1,21,1.3,21.9,6.7C307.8,231.9,307.5,233.8,306.9,235.9z"/>
				</g>
			</g>
			<g>
				<g>
					<path class="st7" d="M283.2,243.9c-0.7-2.4-0.9-4.8-0.7-7.3c0.7,0.2,1.6,0.6,2.6,1.5C285.1,238.1,284.4,241.7,283.2,243.9z"/>
				</g>
			</g>
			<g>
				<g>
					<path class="st7" d="M283.4,231.5c0,0,2.7-0.9,4,2.3l1.5,0.4c0,0,0.7-3.2,1.9-4.7s4.1-0.7,5.1-2.6c0,0,6.5,5.9,11.7,4
						c5.8-2-7.8-13.3-16.2-11.6C284.9,220.7,283.7,225.8,283.4,231.5z"/>
				</g>
			</g>
			<g>
				<g>
					<g>
						<path class="st21" d="M287.4,233.8c0,0-1.6-3.5-4-2.3c-2.6,1.2-2.6,7.8,1.8,8.9L287.4,233.8z"/>
					</g>
				</g>
			</g>
			<g>
				<g>
					<path class="st7" d="M300.7,221.2c0,0,4.2,1.9,8.5,1.2c4.6-0.7,4.7,8-0.7,8.2C303.1,230.9,300.7,221.2,300.7,221.2z"/>
				</g>
			</g>
		</g>
		<g>
			<g>
				<g>
					<path class="st13" d="M297.2,321.8c0,0,21,6.9,29.6,15.2s15.5,46.6,15.5,46.6c-1.2,2.7-3.8,3.4-7.3,3.1
						c0,0-11.9-21.4-16.8-38.6c0,0-56.9-10.6-45.3-30.6C273.9,315.8,289.1,319.5,297.2,321.8z"/>
				</g>
			</g>
		</g>
		<g>
			<path class="st21" d="M262.6,326.5c0,0,3,4,2.7,6.1s-2.9,6-5.1,6.2s2.5-5,1.4-4.9c-1.3,0.2-10.2,7.5-12.1,7.5
				c-1.9,0,2.2-3.4,3.8-4.2c0,0-4.2,1.9-5.2,2.9c-1,1-1.7-1.1,3.2-4.1c0,0-4.5,2.5-4.8,2.6c-1,0.1,1.9-3.2,4.3-4.4
				c0,0-3.6,1.8-4,1.8c-0.5,0,0.6-1.2,3.2-2.6c2.4-1.3,6.3-7.4,6.3-7.4L262.6,326.5z"/>
			<path class="st20" d="M269.8,256.2c0,0-10,19.2-12.2,39.2l-1.1,30.4c0,0,1,2.2,6.1,0.7l3.6-28.2l3.9-15.8
				C270,282.5,273,265,269.8,256.2z"/>
		</g>
	</g>
	<g>
		<ellipse class="st5" cx="223.3" cy="431.1" rx="58.1" ry="14.8"/>
		<g>
			<g>
				<path class="st7" d="M175.8,354.8c8.1,2.4,15.1,3.8,25.7,1.6c1.3-5.2,6.7-22,7.5-30c0.2-1.9-0.3-5.7-0.9-7.5
					c-1.3-4.2-5.1-9-14-9.3c-10.4-0.4-16.2,9.6-16,20.8C178.3,337,176.4,350.9,175.8,354.8z"/>
			</g>
			<path class="st19" d="M225.7,398.1c-17.3-23.3-24.3-49.1-24.3-49.1l0,22.5c0,0,14.8,24.7,19.9,30.2
				C223.3,401.7,225.7,400.7,225.7,398.1z"/>
			<g>
				<g>
					<g>
						<path class="st18" d="M194.4,405.4c0,0,24.3-10.8,35.3-8.1S265,425,265,425c0.3,2.8-1.5,4.7-4.5,6.1c0,0-20-12-32.3-23.8
							c0,0-21.1,11.4-32.7,7.8C194.5,414.8,191.5,408.6,194.4,405.4z"/>
					</g>
				</g>
				<path class="st8" d="M260.3,431.1c0,0,0.2,0.7,1.2,1.6c1,0.8,4.6,3.5,4.6,3.5l13.6-17c0,0-2.6-2.2-5.7-1.2
					c-3.1,1-4.4,5.4-9.2,6.8C264.8,424.8,264.9,426.2,260.3,431.1z"/>
			</g>
			<g>
				<g>
					<path class="st21" d="M194.7,342.6l-0.5,2.6l-0.5,2.9l-0.4,2.5c-1.5,0.8-3.2,0.6-4.7,0.1c-2-0.7-3.6-2-3.6-2l0-0.2l0.1-1
						l0.5-6.4l0.1-1.3c0.8-0.4,2.1-0.1,3.4,0.4c1.3,0.5,2.7,1.2,3.8,1.7C194,342.2,194.7,342.6,194.7,342.6z"/>
				</g>
				<g>
					<path class="st23" d="M194.7,342.6l-1,5.5c-3.6-1.3-6.1-6.9-6.1-6.9l5.4,0.6C194,342.2,194.7,342.6,194.7,342.6z"/>
				</g>
				<g>
					<path class="st21" d="M200.5,344.9c-2.1,0.7-4.3,0.6-6.3,0.2c-1.9-0.4-3.8-1.2-5.4-2c-1.3-0.7-2.4-1.4-3.2-2
						c-0.7-0.5-1.3-1-1.7-1.3c-0.4-0.4-0.7-0.6-0.7-0.6s-0.1-1.4-0.1-3.4c0-2.1,0.2-5,0.7-7.6c0.6-3.1,1.8-6,3.9-6.9l3.4,0l16.2,0.1
						c0,0,0,0.2,0,0.7c0.1,1,0.1,2.8,0.1,5.1c0,0.2,0,0.3,0,0.5C207.3,334.1,206,343.2,200.5,344.9z"/>
				</g>
				<g>
					<path class="st7" d="M185,342.5c-0.4-0.4-1.8-3.3-1.8-3.3s-0.1-1.4-0.1-3.4l1.5,0.8C184.6,336.6,186.6,341.3,185,342.5z"/>
				</g>
				<g>
					<g>
						<g>
							<path class="st21" d="M186.6,330.2c0,0-2-3.3-4.3-1.5c-2.5,2-1.4,9,3.6,9L186.6,330.2z"/>
						</g>
					</g>
				</g>
				<g>
					<path class="st7" d="M207.4,322.1c-0.1,2.1-3.7,4.2-17.1,4.3c0,0,0,6.2-2.6,5.6c-0.6-0.1-1.2-3.7-3.8-3.8
						c0.6-3.1,1.8-6,3.9-6.9l19.6,0.2C207.4,321.4,207.4,321.6,207.4,322.1z"/>
				</g>
				<g>
					<path class="st7" d="M191.6,322c0,0-1.6,9.2-2.5,18.2c-0.1,1-0.2,2-0.3,3c-0.2,2.3-1.9,4.9-3.8,5.3l0.6-7.4
						c-0.7-0.5-1.3-1-1.7-1.3c-0.4-0.4-0.7-0.6-0.7-0.6s-0.1-1.4-0.1-3.4c0-2.1,0.2-5,0.7-7.6c0.6-3.1,1.8-6,3.9-6.9l3.4,0
						C191.5,321.6,191.6,322,191.6,322z"/>
				</g>
			</g>
			<g>
				<g>
					<g>
						<path class="st13" d="M174.5,407.3c0,0,30.3-2.6,41.5-1.1c11.2,1.5,38,24,38,24c0.6,2.7-1,4.8-3.8,6.5c0,0-21.1-9.8-34.6-20.3
							c0,0-23.2,11.9-35.3,10.6C170.8,425.9,172,411.2,174.5,407.3z"/>
					</g>
				</g>
				<path class="st9" d="M250,436.7c0,0,0.3,0.7,1.4,1.4c1.1,0.7,4.9,3,4.9,3l11.8-18.3c0,0-2.8-1.9-5.8-0.6c-3,1.3-3.8,5.9-8.4,7.7
					C253.8,429.9,254.1,431.4,250,436.7z"/>
			</g>
			<g>
				<path class="st10" d="M200.6,386.4c-0.5,7.9,1,12.5,3.3,19.3c-13.4,4.8-19.5,6.6-30.6,4.8c-0.4-6.5-1.5-17.8-1.3-24.7
					c0.6-20.3,2.9-33.3,2.9-33.3l5.6-2.2l5.7-2.2l9.7,0.5l2,0.1l3.5,0.2c0,0,0.4,9.9,3.5,18.4c2.5,6.9-0.4,8.3-1.9,9.9
					c-0.1,0.1-0.1,0.1-0.2,0.2c-0.2,0.3-0.4,0.5-0.5,0.8c0,0.1-0.1,0.2-0.1,0.3c-0.1,0.3-0.2,0.5-0.3,0.9
					C201.1,382.1,200.6,386.4,200.6,386.4z"/>
				<g>
					<path class="st19" d="M202.9,377.2c-0.1,0.1-0.1,0.1-0.2,0.2c-0.2,0.3-0.4,0.5-0.5,0.8c0,0.1-0.1,0.2-0.1,0.3
						c-2.4,1.1-7.6,2.8-14.5,2.8c-0.3,0-0.6,0-0.9,0c-0.2,0-0.4-0.2-0.4-0.4c0-0.2,0.2-0.4,0.4-0.4h0
						C195.4,380.7,201.5,377.9,202.9,377.2z"/>
				</g>
				<path class="st21" d="M195.8,348.6c-0.4,3.7-0.3,9.8-4.9,9.9c-5.5,0.1-9.2-5.8-10.5-8.2l5.7-2.2L195.8,348.6z"/>
			</g>
			<g>
				<path class="st19" d="M215.4,400.8c-7.1-4-22.3-12.8-22.3-12.8s-8.5-10.5-18.2-35.5c0,0-4.9,4.4-2.1,17.7
					c2.9,13.3,15.2,25.6,15.2,25.6s16.6,8.3,24,8.8L215.4,400.8z"/>
			</g>
			<g>
				<path class="st8" d="M244.7,404.6l-48.4,4.8c-1.1,0.1-2-0.7-2.1-1.7l0-0.1c-0.1-1.1,0.7-2,1.7-2.1l48.4-4.8
					c1.1-0.1,2,0.7,2.1,1.7l0,0.1C246.5,403.5,245.7,404.5,244.7,404.6z"/>
				<g>
					<g>
						<polygon class="st9" points="246.6,404.4 203.9,408.5 214.5,384 257.3,379.9 						"/>
						<polygon class="st8" points="243.9,404.6 243.9,404.7 201.2,408.8 211.9,384.3 214.5,384.1 203.9,408.5 						"/>
					</g>
					<path class="st24" d="M233.8,393.9c0.1,1.5-0.9,2.8-2.4,3c-1.5,0.1-2.8-0.9-3-2.4s0.9-2.8,2.4-3
						C232.3,391.3,233.7,392.4,233.8,393.9z"/>
				</g>
			</g>
		</g>
	</g>
	<g>
		<g>
			<path class="st12" d="M164.5,119l1.8-52.1c0,0-4.6-1.2-10.4-1.9c-0.4,0-0.7-0.1-1.1-0.1c-3.6-0.3-7.6-0.4-11.1,0.2l-0.5,0.1
				l-11.5,2l1.2,51.8L164.5,119L164.5,119z"/>
		</g>
		<g>
			<g>
				<g>
					<path class="st21" d="M153.3,57.3v7.8c-0.1,0.1-0.3,0.1-0.4,0.2c-2.8,1.1-5.5,1.1-8.2-0.2v-7.8
						C144.6,57.3,153.3,57.3,153.3,57.3z"/>
					<path class="st23" d="M153.3,59.1v5.9c-0.1,0.1-0.3,0.1-0.4,0.2c-3.2-0.3-6.3-2-8.2-3.3v-2.8H153.3z"/>
				</g>
				<path class="st23" d="M139.2,44.5c0,0-1-2.2-2.9-2.7c-1.9-0.4-1.8,4.3-0.7,7.8s4.1,2.1,4.1,2.1L139.2,44.5z"/>
				<path class="st23" d="M158.6,44.5c0,0,1-2.2,2.9-2.7c1.9-0.4,1.8,4.3,0.7,7.8s-4.1,2.1-4.1,2.1L158.6,44.5z"/>
				<path class="st21" d="M148.9,60.7L148.9,60.7c-5.8,0-10.5-6.2-10.5-11.7V36.7h20.9v12.3C159.4,54.5,154.7,60.7,148.9,60.7z"/>
				<path class="st7" d="M138.5,45.7c0,0-3.6-5.4-1.1-9c0,0-1.5-3.1,0-6s8-6.3,17-4.6c9,1.8,7.3,8.4,6.2,10.2c0,0,2.2,4.1-1.1,9.3
					c0,0-2-2.7-1.4-8.4c0,0-10,2.9-18.1-0.6C139.9,36.7,141,43.4,138.5,45.7z"/>
			</g>
		</g>
		<g>
			<path class="st20" d="M131.6,67.2c0,0-8.2,11.7-11.3,21.5c0,0,4.3,5.1,7.1,6.1l5.2-13.8C132.7,81,135.2,72.9,131.6,67.2z"/>
			<path class="st20" d="M127.5,94.8c0,0,3.9,6.5,11.2,17.8l-4.1,2.9l-13.4-15c-1.9-1.7-2.9-4.3-2.3-6.8l1.5-5.1
				C120.3,88.7,125.7,90.7,127.5,94.8z"/>
		</g>
		<g>
			<path class="st20" d="M166.3,66.9c0,0,8.2,11.7,11.3,21.5c0,0-4.3,5.1-7.1,6.1L165.2,81C165.2,81,162.7,72.7,166.3,66.9z"/>
			<path class="st20" d="M170.4,94.6c0,0-3.9,6.5-11.2,17.8l4.1,2.9l13.4-15c1.9-1.7,2.9-4.3,2.3-6.8l-1.5-5.1
				C177.6,88.4,172.2,90.5,170.4,94.6z"/>
		</g>
		<path class="st19" d="M149,130.6c-0.1-1.3,0.1-2.5,0.3-3.8c0.8-4.5,3.4-13.5,11.1-12.5c10.2,1.4,7,20.7,7,20.7l-6,47.5
			c-2.3,0.3-4.7,0.3-7.3,0C154.1,182.6,151.4,155,149,130.6z"/>
		<path class="st19" d="M118.4,114.3c0,0,9.5,14.1,20,19.7c11.3,5.9,16.3-5.1,16.3-5.1S129.7,111.1,118.4,114.3z"/>
		<path class="st10" d="M164.3,109.4c0,0,0.7,9-2,11.6c-2.7,2.6-19.2,2.7-24.8,1c-5.5-1.7-4.6-13-4.6-13L164.3,109.4z"/>
		<g>
			<path class="st9" d="M168,111.4h-38.9l-3.6-21c-0.3-1.8,1.1-3.5,2.9-3.5h40.1c1.8,0,3.2,1.7,2.9,3.5L168,111.4z"/>
			<path class="st8" d="M164.9,116h-32.6c-1.7,0-3.1-1.4-3.1-3.1v-1.4H168v1.4C168,114.6,166.6,116,164.9,116z"/>
			<circle class="st24" cx="149" cy="100.1" r="3.4"/>
		</g>
		<g>
			<g>
				<g>
					<path class="st6" d="M186.9,135.5c-2,2-4.6,2-7.1,0.5c-1.1-0.6-2.6-1.5-4.1-2.3c-2-1.1-3.8-2-3.8-2l2.3-5.3c0,0,1.4,0,3.4,0h0
						c1.7,0,3.8-0.1,5.8-0.4c4.4-0.5,6.5-1.6,7,0.1C191,127.9,189,133.5,186.9,135.5z"/>
				</g>
			</g>
			<path class="st10" d="M132,103.5c0,0-7.6-4.6-14.1-0.1c-6.4,4.5,0.4,12.9,7.4,15.8c7,2.9,48.6,14.4,48.6,14.4
				c0.7-1.5,1.4-4.3,2-7.1c0,0-12.4-7-19.3-11.5C140.8,104.7,132,103.5,132,103.5z"/>
		</g>
		<path class="st6" d="M161.4,182.6c0,0,4.3,6.6,6.9,12.3c2.6,5.7,0.1,7.5-3.7,7.2c-6.2-0.4-11.1-15.2-11.1-15.2l0.6-4.4
			C154.1,182.6,155.5,182.7,161.4,182.6z"/>
	</g>
	<g>
		<g>
			<path class="st7" d="M346.5,89.8c2.1-3.5,5.6-7.3,4.1-11.4c-0.1-0.2-0.1-0.3-0.2-0.5c-4.1-11.5-14-19.3-24.4-14.8
				c-8.8,3.8-10.9,10.2-10.5,15c0.1,2,1.4,5.7,2.5,7.4c0.9,1.4,1.7,2.8,2.6,4.1c2.5,4,6.4,6.7,10.8,7.7
				C336.8,95.6,341.8,92.9,346.5,89.8z"/>
		</g>
		<ellipse class="st7" cx="339" cy="60.7" rx="10.6" ry="10.6"/>
		<g>
			<g>
				<g>
					<path class="st18" d="M292.8,117.9c0,0,10.6,13,34,15.8c0,0,0,0,0,0c0,0,0,0,0,0c3.7-4.1,7.8-13.8,10.6-21.9
						c1-3,1.1-4.8,0.2-6.6c-0.9-1.8-2.4-3.3-4.2-4.1c-0.4-0.2-0.8-0.2-1.2,0.6c-0.9,1.8-1.7,3.8-2.7,5.9c-2.9,6.2-5.2,11.8-6.6,15.5
						c0,0,0,0,0,0c-0.1-0.1-5.7-2.4-13.6-3.3c-7.8-0.9-14.1-5.9-14.1-5.9L292.8,117.9z"/>
				</g>
			</g>
		</g>
		<g>
			<g>
				<path class="st13" d="M337.2,133.7c0.1-4.7,0.3-1.7-0.5-7.3c0-0.2-0.1-0.4-0.1-0.7c-0.1-0.1-0.1-0.3-0.2-0.4
					c-1.3-2.2-1.9-3.5-2.4-5.1c-1.4-5.1-0.3-8.3,0-11.5c-0.3-1.5-1.3-6.5-1.7-8l6.5-2.5l1.4-0.5l0.1,0v0l1.4-0.5l0.1,0
					c3.2-1.2,6.5-1.7,9.9-1.5c0.2,0,0.4,0,0.7,0.1l2.5,0.2l0.1,0l1.6,0.1l9.3,0.8l2.7,36.9C358.2,133.7,347.1,133.7,337.2,133.7z"/>
			</g>
			<g>
				<g>
					<path class="st21" d="M356.7,95.9c-3,6.1-10.5,12.9-14.3,10.8c-2.3-1.3-3.3-5.5-3.4-8.6l1.4-0.5l0.1,0v0l1.4-0.5l0.1,0
						c3.2-1.2,6.5-1.7,9.9-1.5c0.1,0,0.2,0,0.3,0c0.1,0,0.2,0,0.3,0l2.5,0.2l0.1,0L356.7,95.9z"/>
				</g>
			</g>
			<g>
				<g>
					<path class="st20" d="M336.6,125.7c0,0.2,0.1,0.4,0.1,0.7c1.6,0.3,6.7,1.1,15.3-1c1.1-0.3,2.3-0.6,3.5-0.9
						c0.3-0.1,0.4-0.3,0.3-0.6c-0.1-0.2-0.3-0.4-0.6-0.3c-12.4,3.7-18.7,1.8-18.8,1.8c0,0,0,0,0,0
						C336.5,125.4,336.6,125.5,336.6,125.7z"/>
				</g>
			</g>
		</g>
		<g>
			<g>
				<path class="st21" d="M338.7,93.8l1.5,2.4l1.7,2.7l1.5,2.4c1.8,0.2,3.5-0.7,4.8-1.8c1.7-1.5,2.8-3.5,2.8-3.5l-3.7-7.4l-0.7-1.3
					c-1-0.1-2.1,0.7-3.3,1.8c-1.1,1-2.2,2.3-3.2,3.2C339.3,93.1,338.7,93.8,338.7,93.8z"/>
			</g>
			<g>
				<path class="st23" d="M338.7,93.8l3.2,5.1c3.1-2.8,3.4-9.4,3.4-9.4l-5.2,2.8C339.3,93.1,338.7,93.8,338.7,93.8z"/>
			</g>
			<g>
				<path class="st21" d="M348.9,85.6c0,0-0.2,0.3-0.5,0.9c-0.3,0.5-0.7,1.2-1.2,2.1v0c-0.6,1-1.5,2.2-2.5,3.4l0,0
					c-1.3,1.5-2.8,3-4.6,4.2c-1.9,1.3-4.1,2.2-6.5,2.4c-6.2,0.5-11.2-8.2-14-14.6c-0.1-0.2-0.2-0.4-0.2-0.5c-1-2.3-1.7-4.2-2-5.2
					c-0.2-0.5-0.2-0.7-0.2-0.7l16.3-6.7l3.4-1.4c2,0.1,4,1.7,5.6,3.9c0.1,0.2,0.3,0.3,0.4,0.5c0.1,0.1,0.1,0.2,0.2,0.3
					c0.2,0.3,0.4,0.5,0.5,0.8c0.1,0.2,0.2,0.3,0.3,0.5c0.3,0.5,0.6,0.9,0.8,1.4c1.1,1.9,2,3.9,2.7,5.5
					C348.5,84.2,348.9,85.6,348.9,85.6z"/>
			</g>
			<g>
				<g>
					<path class="st21" d="M341.9,77.9c0,0,0.7-4.1,3.7-3.2c3.3,1,5.1,8.6,0,10.5L341.9,77.9z"/>
				</g>
			</g>
			<g>
				<path class="st7" d="M341.8,79.1c0.9,2.8,0.5,7.2,0.5,7.2c-1.8-4.1-3.7-7.1-4.1-7.6c0,0,0,0,0,0c0,0,0,0,0,0c-1-1.4-1.6-3-1.6-3
					c-13.6,5.3-18.1,4.7-19,2.6c-0.2-0.5-0.2-0.7-0.2-0.7l19.8-8.2c2.5,0.1,4.8,2.5,6.7,5.4C342.1,75.6,341.9,77.8,341.8,79.1z"/>
			</g>
		</g>
		<g>
			<g>
				<g>
					<path class="st18" d="M322.8,120.3c0,0,11.6,9.7,35.1,12.5c0,0,0,0,0,0c0,0,0,0,0,0c3.7-4.1,7.8-13.8,10.6-21.9
						c1.6-4.8,0.7-10.2-2.5-14.1c-1,0.8-1.9,2.2-2.7,4s-1.7,3.8-2.7,5.9c-2.9,6.2-5.2,11.8-6.6,15.5c0,0,0,0,0,0
						c-0.1-0.1-5.7-2.4-13.6-3.3c-7.8-0.9-15.3-3.4-15.3-3.4L322.8,120.3z"/>
				</g>
			</g>
		</g>
		<path class="st21" d="M325,115.4c0,0-6.2-5.4-9.6-5c-3.4,0.4-5.8,3.5-6.1,5.9c-0.2,2.4,2.8,2.1,5.4,1.5s8,2.5,8,2.5
			S324.7,118.3,325,115.4z"/>
		<g>
			<g>
				<path class="st8" d="M288,104.1l12,29.5c0.4,1.1,1.4,1.7,2.6,1.7h18c2,0,3.3-2,2.6-3.8l-12-29.5c-0.4-1.1-1.4-1.7-2.6-1.7h-18
					C288.6,100.2,287.3,102.2,288,104.1z"/>
				<path class="st9" d="M288,104.1l12,29.5c0.4,1.1,1.4,1.7,2.6,1.7h14.6c2,0,3.3-2,2.6-3.8l-12-29.5c-0.4-1.1-1.4-1.7-2.6-1.7
					h-14.6C288.6,100.2,287.3,102.2,288,104.1z"/>
				<path class="st24" d="M299.9,118.8c0.6,1.6,2.4,2.9,4.1,2.9s2.4-1.3,1.8-2.9c-0.6-1.6-2.4-2.9-4.1-2.9S299.2,117.1,299.9,118.8z
					"/>
			</g>
			<path class="st21" d="M291.1,115.6c0,0-1.3-3,0.1-3.8l1.2,3c0,0,2.6-2.4,4.5-1.2s4.8,7.5,3.9,9.2c-0.9,1.7-6.1,3.2-7.9,1.1
				C291,121.7,290.4,117.5,291.1,115.6z"/>
		</g>
	</g>
	<g>
		<ellipse class="st5" cx="423.1" cy="420.6" rx="45" ry="11.2"/>
		<g>
			<path class="st18" d="M378.2,318.1c0,0,23.8-2.6,42.1-2.6s47.9,2.6,47.9,2.6s-19.3,9.7-45,9.7
				C397.5,327.8,378.2,318.1,378.2,318.1z"/>
			<g>
				<g>
					
						<rect x="392.7" y="290" transform="matrix(0.9973 -7.379802e-02 7.379802e-02 0.9973 -24.1881 30.4262)" class="st10" width="13.9" height="105"/>
					<polygon class="st21" points="402.7,289.7 388.8,290.7 392.6,280.4 394.6,275.1 397.4,280.1 					"/>
					
						<rect x="396.3" y="387.3" transform="matrix(0.9973 -7.379802e-02 7.379802e-02 0.9973 -27.7624 30.8238)" class="st6" width="13.9" height="7.6"/>
					<path class="st12" d="M409.7,400.5l-11.5,0.9c-0.7,0-1.2-0.4-1.3-1.1l-0.4-4.9l13.9-1l0.4,4.9
						C410.8,399.9,410.3,400.5,409.7,400.5z"/>
					<polygon class="st6" points="397.4,280.1 392.6,280.4 394.6,275.1 					"/>
					
						<rect x="395.8" y="381.8" transform="matrix(0.9973 -7.379802e-02 7.379802e-02 0.9973 -27.2816 30.7703)" class="st19" width="13.9" height="5.5"/>
					<path class="st19" d="M392.6,295.6l5.7,77.6c0,0.6,0.6,1,1.1,1l0,0c0.6,0,1-0.6,1-1.1l-5.7-77.6c0-0.6-0.6-1-1.1-1l0,0
						C393,294.5,392.6,295,392.6,295.6z"/>
					<path class="st19" d="M398.1,295.2l5.7,77.6c0,0.6,0.6,1,1.1,1l0,0c0.6,0,1-0.6,1-1.1l-5.7-77.6c0-0.6-0.6-1-1.1-1l0,0
						C398.5,294.1,398,294.6,398.1,295.2z"/>
				</g>
			</g>
			<g>
				<g>
					
						<rect x="370.4" y="328.3" transform="matrix(7.259718e-02 -0.9974 0.9974 7.259718e-02 57.7684 732.7228)" class="st10" width="105" height="13.9"/>
					<polygon class="st21" points="412.1,387.2 426,388.2 420.7,397.8 418,402.7 416,397.4 					"/>
					
						<rect x="422.6" y="279.8" transform="matrix(7.259718e-02 -0.9974 0.9974 7.259718e-02 109.4874 691.2091)" class="st6" width="7.6" height="13.9"/>
					<path class="st12" d="M421.4,276.4l11.5,0.8c0.7,0,1.2,0.6,1.1,1.3l-0.4,4.9l-13.9-1l0.4-4.9
						C420.2,276.9,420.8,276.4,421.4,276.4z"/>
					<polygon class="st6" points="416,397.4 420.7,397.8 418,402.7 					"/>
					
						<rect x="423.2" y="286.3" transform="matrix(7.259718e-02 -0.9974 0.9974 7.259718e-02 102.5773 696.8098)" class="st19" width="5.5" height="13.9"/>
					<path class="st19" d="M423,382.8l5.6-77.6c0-0.6-0.4-1.1-1-1.1l0,0c-0.6,0-1.1,0.4-1.1,1l-5.6,77.6c0,0.6,0.4,1.1,1,1.1l0,0
						C422.4,383.8,422.9,383.4,423,382.8z"/>
					<path class="st19" d="M417.5,382.4l5.6-77.6c0-0.6-0.4-1.1-1-1.1l0,0c-0.6,0-1.1,0.4-1.1,1l-5.6,77.6c0,0.6,0.4,1.1,1,1.1l0,0
						C417,383.4,417.5,383,417.5,382.4z"/>
				</g>
			</g>
			<g>
				<g>
					
						<rect x="397.1" y="334.1" transform="matrix(0.2132 -0.977 0.977 0.2132 20.5733 707.6237)" class="st10" width="105" height="13.9"/>
					<polygon class="st21" points="431.6,390.9 445.2,393.8 438.6,402.6 435.2,407.1 434,401.6 					"/>
					
						<rect x="456.2" y="286.5" transform="matrix(0.2132 -0.977 0.977 0.2132 75.2257 680.3289)" class="st6" width="7.6" height="13.9"/>
					<path class="st12" d="M456.5,282.6l11.3,2.5c0.6,0.1,1.1,0.8,0.9,1.4l-1,4.8l-13.6-3l1-4.8
						C455.2,282.8,455.8,282.4,456.5,282.6z"/>
					<polygon class="st6" points="434,401.6 438.6,402.6 435.2,407.1 					"/>
					
						<rect x="455.9" y="292.9" transform="matrix(0.2132 -0.977 0.977 0.2132 67.8413 684.0162)" class="st19" width="5.5" height="13.9"/>
					<path class="st19" d="M442.9,388l16.6-76c0.1-0.6-0.2-1.1-0.8-1.3l0,0c-0.6-0.1-1.1,0.2-1.3,0.8l-16.6,76
						c-0.1,0.6,0.2,1.1,0.8,1.3l0,0C442.3,389,442.8,388.6,442.9,388z"/>
					<path class="st19" d="M437.6,386.9l16.6-76c0.1-0.6-0.2-1.1-0.8-1.3l0,0c-0.6-0.1-1.1,0.2-1.3,0.8l-16.6,76
						c-0.1,0.6,0.2,1.1,0.8,1.3l0,0C436.9,387.8,437.5,387.5,437.6,386.9z"/>
				</g>
			</g>
			<path class="st13" d="M468.1,318.1C468.1,318.1,468.1,318.1,468.1,318.1l-13.1,100.3c-21.2,10.9-42.4,10.9-63.6,0l-1.5-11.3v0
				l-11.7-89C408.1,329.2,438.1,329.2,468.1,318.1z"/>
			<path class="st18" d="M468.1,318.1l-13.1,100.3c-21.2,10.9-42.4,10.9-63.6,0l-1.5-11.3v0c0,0,22.8,13.3,41.8,2.3
				C452.4,397.4,467.8,319.4,468.1,318.1z"/>
		</g>
	</g>
</g>
</svg>
